Coordinates
version=1
nRows=12
nColumns=24
inDegrees=yes

Units are S.I. units (second, meters, Newtons, ...)
Angles are in degrees.

endheader
time	pelvis_tilt	pelvis_list	pelvis_rotation	pelvis_tx	pelvis_ty	pelvis_tz	hip_flexion_r	hip_adduction_r	hip_rotation_r	knee_angle_r	ankle_angle_r	subtalar_angle_r	mtp_angle_r	hip_flexion_l	hip_adduction_l	hip_rotation_l	knee_angle_l	ankle_angle_l	subtalar_angle_l	mtp_angle_l	lumbar_extension	lumbar_bending	lumbar_rotation
      1.07883333	      0.35729080	      3.38489560	     -0.32428068	      0.51211028	      1.02137033	      0.27437801	      8.74751813	      1.47847192	     -1.11211076	    -17.02880625	      6.88376044	     -7.07092761	      8.57680514	     13.19559816	      2.41266274	     -6.15953463	    -62.30435991	      4.40746704	    -11.24182831	      6.97465642	     -1.03578135	     -1.96955460	      4.65803000
      1.08300000	      0.37678842	      3.41944005	     -0.68333212	      0.51677837	      1.02178517	      0.27498501	      8.33944014	      1.46962229	     -0.93786076	    -16.77342249	      7.00070333	     -6.82705840	      8.67395846	     13.63489370	      2.39093593	     -6.44704468	    -61.86359317	      4.56623924	    -11.17422074	      6.94892983	     -1.04788806	     -2.00368948	      4.92927604
      1.08716667	      0.42217127	      3.45545074	     -1.04365748	      0.52142330	      1.02221642	      0.27558361	      7.90541158	      1.45399069	     -0.75976342	    -16.51918912	      7.09710263	     -6.59989984	      8.74385948	     14.03573907	      2.36804322	     -6.73758275	    -61.38603436	      4.69797678	    -11.15003164	      6.93007710	     -1.08916221	     -2.04116728	      5.11032752
      1.09133333	      0.44668000	      3.49986138	     -1.38713514	      0.52604072	      1.02258875	      0.27616564	      7.49814225	      1.42491251	     -0.58105778	    -16.27555556	      7.24117584	     -6.34489062	      8.85454539	     14.45368266	      2.35801410	     -7.00143000	    -60.87948385	      4.83044304	    -11.10452747	      6.89848315	     -1.12506888	     -2.09308903	      5.44329054
      1.09550000	      0.44856457	      3.51015846	     -1.71989547	      0.53064695	      1.02289635	      0.27673882	      7.10738408	      1.43265871	     -0.39268462	    -16.01223866	      7.31107779	     -6.14179558	      8.89494077	     14.89525815	      2.30322764	     -7.25913364	    -60.36660378	      4.93780907	    -11.11777634	      6.88668396	     -1.12839321	     -2.10492324	      5.52215404
      1.09966667	      0.48892132	      3.55899030	     -2.07148601	      0.53525858	      1.02323950	      0.27732270	      6.69578356	      1.38920387	     -0.22245160	    -15.79431312	      7.47514309	     -5.90163382	      9.00580552	     15.27035622	      2.28681177	     -7.53800048	    -59.79180263	      5.03942456	    -11.08575543	      6.85074879	     -1.16079994	     -2.16575825	      5.89761572
      1.10383333	      0.48456780	      3.56870166	     -2.39150867	      0.53983250	      1.02348568	      0.27786614	      6.31697827	      1.38898422	     -0.03194857	    -15.54113332	      7.54816729	     -5.70369734	      9.04181999	     15.70313927	      2.22873607	     -7.78007784	    -59.22658280	      5.11907238	    -11.11169749	      6.83846571	     -1.15904095	     -2.18264637	      5.96141362
      1.10800000	      0.52552493	      3.59493080	     -2.72776438	      0.54441113	      1.02377289	      0.27842009	      5.90513620	      1.36185829	      0.13974140	    -15.32403816	      7.69805446	     -5.47972614	      9.14905033	     16.06285100	      2.18356934	     -8.04230611	    -58.60715398	      5.19438221	    -11.09782170	      6.79827442	     -1.19890059	     -2.21286240	      6.31539907
      1.11216667	      0.53086436	      3.61323614	     -3.05373629	      0.54897428	      1.02398686	      0.27895906	      5.53087922	      1.34342888	      0.33021615	    -15.10229879	      7.78706831	     -5.28515430	      9.19974285	     16.45730416	      2.12754513	     -8.29330588	    -57.97078272	      5.24321397	    -11.11784654	      6.77758443	     -1.19690325	     -2.23047258	      6.41141674
      1.11633333	      0.54080304	      3.62985693	     -3.37582537	      0.55351689	      1.02417856	      0.27947950	      5.15416196	      1.32072598	      0.51234677	    -14.88406449	      7.90101557	     -5.08008268	      9.25295620	     16.83902057	      2.07241177	     -8.53036718	    -57.31166921	      5.28364816	    -11.12713553	      6.75449550	     -1.21277768	     -2.25248349	      6.57869472
      1.12050000	      0.52858295	      3.62497270	     -3.65769354	      0.55805377	      1.02429868	      0.27996190	      4.78547984	      1.32129111	      0.69395780	    -14.64259403	      8.00752146	     -4.88953963	      9.28597377	     17.24697413	      1.99848125	     -8.72174643	    -56.65385352	      5.32815253	    -11.13798697	      6.73924971	     -1.21017173	     -2.26993032	      6.68780806
      1.12466667	      0.57162467	      3.65223190	     -3.98821963	      0.56259089	      1.02450436	      0.28046255	      4.39220162	      1.27405507	      0.86971883	    -14.46538890	      8.13506737	     -4.67970152	      9.34292788	     17.56004770	      1.95493910	     -8.96257536	    -55.91769805	      5.33395665	    -11.13835617	      6.70976877	     -1.25083478	     -2.28631666	      6.93776556
